<svg width="113" height="113" viewBox="21 21 113 113" fill="none" xmlns="http://www.w3.org/2000/svg">
  <rect x="21" y="21" width="113" height="113" rx="27" fill="#121826"/>
  <path d="M47.7246 49.292C58.5716 44.4695 84.0247 38.5273 108.837 49.3115C109.281 64.8507 110.061 77.6458 106.576 88.5088C103.16 99.1569 95.5343 108.135 78.3164 115.45C70.1312 112.811 66.3371 109.027 61.8916 105.992C54.8191 98.7799 51.1284 94.7376 49.165 87.5977C47.1549 80.2875 46.9381 69.6499 47.7246 49.292Z" stroke="white" stroke-width="4.49886" stroke-linecap="round"/>
  <path d="M59.3117 73.9808H57.9058C57.5952 73.9808 57.3435 74.2326 57.3435 74.5432V75.6679C57.3435 75.9785 57.0917 76.2302 56.7811 76.2302C56.4705 76.2302 56.2188 76.482 56.2188 76.7926V77.6361C56.2188 77.9467 56.4705 78.1985 56.7811 78.1985C57.0917 78.1985 57.3435 78.4503 57.3435 78.7609V83.4656C57.3435 83.5156 57.3502 83.5667 57.3644 83.6146C57.9941 85.7497 60.1025 85.7287 61.4069 85.3702C61.6645 85.2994 61.8108 85.0388 61.7669 84.7754L61.7017 84.3844L61.6945 84.3411C61.63 83.9538 61.1603 83.7754 60.7825 83.6686C60.3571 83.5485 60.0586 83.1211 59.9129 82.792C59.8855 82.7301 59.8741 82.6627 59.8741 82.595V78.7609C59.8741 78.4503 60.1258 78.1985 60.4364 78.1985H60.9988C61.3094 78.1985 61.5611 77.9467 61.5611 77.6361V76.7926C61.5611 76.482 61.3094 76.2302 60.9988 76.2302H60.4364C60.1258 76.2302 59.8741 75.9785 59.8741 75.6679V74.5432C59.8741 74.2326 59.6223 73.9808 59.3117 73.9808Z" fill="white"/>
  <path d="M70.0783 81.5726H65.1058C64.736 81.5726 64.4623 81.9281 64.6224 82.2614C65.4652 84.0157 67.2016 83.4448 68.1581 82.804C68.2583 82.7369 68.3746 82.6974 68.4952 82.6974H69.9431C70.2737 82.6974 70.5329 82.9835 70.4284 83.2972C70.071 84.3697 68.9551 85.7903 66.3412 85.7903C63.192 85.7903 62.2172 82.9785 62.1235 81.5726C61.8423 79.7918 62.2922 76.2302 66.3412 76.2302C70.0545 76.2302 70.7407 79.2258 70.6121 81.0961C70.5931 81.3721 70.3551 81.5726 70.0783 81.5726Z" fill="white"/>
  <path d="M77.7513 73.4185H75.4485C75.2136 73.4185 75.0034 73.5645 74.9214 73.7847L70.8411 84.7507C70.7044 85.1181 70.9761 85.5091 71.3681 85.5091H72.9899C73.2199 85.5091 73.4267 85.3691 73.5121 85.1556L74.354 83.0509C74.4394 82.8374 74.6462 82.6974 74.8761 82.6974H78.3323C78.5623 82.6974 78.769 82.8374 78.8545 83.0509L79.6964 85.1556C79.7818 85.3691 79.9885 85.5091 80.2185 85.5091H81.5766C81.9637 85.5091 82.2351 85.1271 82.1076 84.7616L78.2822 73.7956C78.2035 73.5698 77.9905 73.4185 77.7513 73.4185Z" fill="white"/>
  <path d="M68.3115 79.8858H64.375C64.375 79.2297 64.7687 77.9175 66.3433 77.9175C67.9179 77.9175 68.3115 79.2297 68.3115 79.8858Z" fill="#121826"/>
  <path d="M75.0598 80.7293L76.4657 76.2305L77.8716 80.7293H75.0598Z" fill="#121826"/>
  <rect x="82.9336" y="76.7925" width="2.81179" height="8.99772" rx="0.562358" fill="white"/>
  <circle cx="84.3395" cy="74.8243" r="1.40589" fill="white"/>
  <path d="M59.875 59.3594C63.2491 54.2984 73.3716 45.3007 87.4305 51.7675" stroke="white" stroke-width="2.81179" stroke-linecap="round"/>
  <path d="M62.1241 71.7312H58.4688C60.437 62.4523 68.9661 55.0479 71.9653 53.4546C79.5572 57.6723 84.3372 67.2323 85.4619 71.7312H81.8066C78.2075 62.9584 73.7461 58.8907 71.9653 57.9534C66.5667 61.7775 63.1551 68.732 62.1241 71.7312Z" fill="white"/>
  <path d="M81.247 87.4771L84.9023 87.4771C81.8094 97.5996 74.9674 101.899 71.9681 103.223C63.5328 98.4431 60.721 93.3819 58.7527 87.4771L62.408 87.4771C66.0071 94.7653 70.1873 98.1446 71.9681 98.9233C77.3668 95.7464 80.216 89.9688 81.247 87.4771Z" fill="white"/>
  <circle cx="57.9059" cy="63.5773" r="1.40589" fill="white"/>
  <circle cx="55.6559" cy="88.8834" r="1.40589" fill="white"/>
  <circle cx="69.9958" cy="105.473" r="1.12472" fill="white"/>
  <circle cx="84.8981" cy="95.069" r="1.40589" fill="white"/>
  <circle cx="92.2106" cy="101.818" r="1.40589" fill="white"/>
  <circle cx="92.2106" cy="79.3234" r="1.40589" fill="white"/>
  <circle cx="101.211" cy="88.8834" r="1.40589" fill="white"/>
  <circle cx="93.8981" cy="61.8903" r="1.40589" fill="white"/>
  <circle cx="98.9606" cy="60.7658" r="1.40589" fill="white"/>
  <circle cx="91.6481" cy="54.0172" r="1.40589" fill="white"/>
  <circle cx="90.5231" cy="59.0783" r="1.40589" fill="white"/>
  <path d="M74.7115 62.6658L72.5637 60.518C72.5443 60.4986 72.5134 60.4963 72.4911 60.5122C65.6255 65.4045 63.3023 72.3308 62.9801 75.2886C62.9753 75.3326 63.0214 75.3614 63.0614 75.3424C63.9386 74.9268 65.1808 74.6468 65.744 74.5497C65.767 74.5458 65.7849 74.5277 65.7896 74.5048C67.353 66.7589 72.3125 63.4724 74.6894 62.76C74.7306 62.7476 74.742 62.6963 74.7115 62.6658Z" fill="white"/>
  <path d="M70.208 75.8497C69.7236 75.239 68.6298 74.7498 68.078 74.5592C68.0512 74.55 68.0355 74.5218 68.0412 74.494C69.3964 67.8175 73.9864 65.1971 76.1513 64.7096C76.1728 64.7048 76.1939 64.7134 76.2071 64.731L77.8001 66.8549C77.8287 66.8932 77.7987 66.9478 77.7509 66.9467C73.8195 66.8506 71.1827 72.7365 70.313 75.8324C70.3 75.8788 70.238 75.8875 70.208 75.8497Z" fill="white"/>
  <path d="M79.7577 71.7316H74.5953C74.5521 71.7316 74.5251 71.6851 74.5476 71.6482C75.4647 70.1466 77.6355 69.2245 78.6687 68.9329C78.6962 68.9252 78.724 68.9398 78.7347 68.9663L79.8099 71.6544C79.8247 71.6914 79.7975 71.7316 79.7577 71.7316Z" fill="white"/>
  <path d="M55.6641 75.0543C56.1178 70.1709 57.8813 66.1717 58.7307 64.7384C58.7438 64.7162 58.7395 64.6893 58.7213 64.671L56.8306 62.7804C56.8062 62.7559 56.7668 62.7575 56.7469 62.7857C54.9617 65.3077 53.2207 72.587 52.5679 75.9414C52.5669 75.9468 52.5667 75.9522 52.5673 75.9577C52.7902 78.1721 53.3957 78.198 53.681 77.9274C53.6877 77.921 53.6926 77.9126 53.6953 77.9036C54.3409 75.7613 55.2075 75.1566 55.6085 75.1089C55.6374 75.1054 55.6614 75.0833 55.6641 75.0543Z" fill="white"/>
  <path d="M55.6255 79.8768C54.884 79.6717 54.6147 78.9359 54.5508 78.436C54.5432 78.3771 54.4549 78.3581 54.4284 78.4112C53.8135 79.6419 52.5664 82.1515 52.5664 82.4163C52.5664 82.6975 52.5664 85.2281 53.4099 84.947C54.0804 84.7235 54.8064 83.7413 55.0915 83.269C55.0953 83.2628 55.1 83.2576 55.1058 83.2532C55.9842 82.5818 55.8499 80.7743 55.6666 79.919C55.6622 79.8982 55.646 79.8825 55.6255 79.8768Z" fill="white"/>
  <path d="M57.8517 86.596L56.2881 85.5536C56.2558 85.532 56.2118 85.5489 56.2008 85.5862C55.9494 86.4456 55.0507 87.5131 54.5802 87.9938C54.5563 88.0183 54.5587 88.058 54.5862 88.0784C55.3534 88.6494 56.8454 89.6657 57.0653 89.4458C57.3464 89.1646 57.0653 88.6023 57.0653 88.0399C57.0653 87.6143 57.5686 86.9873 57.861 86.6829C57.8856 86.6573 57.8813 86.6157 57.8517 86.596Z" fill="white"/>
  <path d="M59.5849 93.9172L58.4969 91.1972C58.4836 91.1641 58.4435 91.1513 58.4138 91.1712C57.2947 91.9189 55.8137 92.9743 57.0653 94.2259C57.8866 95.0472 59.33 94.269 59.5784 93.968C59.5902 93.9537 59.5918 93.9344 59.5849 93.9172Z" fill="white"/>
  <path d="M59.3186 97.053C59.7638 98.7822 61.9854 98.9054 63.1432 98.7413C63.1885 98.7349 63.2063 98.6798 63.1742 98.6473C62.3144 97.7775 61.404 96.6947 61.0248 96.2228C61.0106 96.2052 60.9869 96.1984 60.9651 96.2046C59.4858 96.6309 59.2401 96.9207 59.305 97.0255C59.3104 97.0341 59.3161 97.0431 59.3186 97.053Z" fill="white"/>
  <path d="M68.1997 102.863L65.5093 100.98C65.5036 100.976 65.4986 100.971 65.4946 100.965C65.0477 100.308 64.2044 100.502 63.8252 100.687C63.8174 100.691 63.8085 100.693 63.7998 100.693C62.2421 100.697 62.7839 101.444 63.2512 101.818C64.5492 103.116 66.9916 103.131 68.1771 102.963C68.2269 102.956 68.2409 102.892 68.1997 102.863Z" fill="white"/>
  <path d="M73.3657 104.637C72.2833 105.711 71.1161 105.142 70.6148 104.68C70.5876 104.655 70.5437 104.661 70.5253 104.693L69.4613 106.555C69.4474 106.58 69.4539 106.611 69.4762 106.628C72.0138 108.54 76.4839 106.024 79.8407 103.786C82.5059 102.009 85.2076 97.5278 86.2679 95.43C86.2868 95.3927 86.2587 95.3506 86.2169 95.3506H83.5323C83.5102 95.3506 83.4902 95.3635 83.481 95.3835C81.2255 100.307 75.8195 103.592 73.3833 104.625C73.3767 104.628 73.3708 104.632 73.3657 104.637Z" fill="white"/>
  <path d="M71.9379 96.4567L69.7906 95.1146C69.7564 95.0932 69.757 95.0425 69.7901 95.0194C74.8309 91.4976 74.2463 90.2867 77.4841 84.3008C77.5118 84.2495 77.6015 84.2653 77.6099 84.3229C77.7264 85.1225 78.3629 86.7638 78.7056 87.4566C78.7124 87.4704 78.713 87.4859 78.7077 87.5004C76.9173 92.4047 73.5085 95.5001 71.9964 96.4573C71.9782 96.4688 71.9562 96.4681 71.9379 96.4567Z" fill="white"/>
  <path d="M73.5587 87.1964H70.8742C70.8548 87.1964 70.8369 87.2062 70.8266 87.2226C69.715 88.9869 67.6244 90.8889 66.6697 91.6596C66.645 91.6795 66.6425 91.7153 66.6632 91.7394L68.2792 93.6248C68.2981 93.6468 68.3301 93.6511 68.3537 93.6344C70.5491 92.076 72.7363 88.8072 73.6082 87.2786C73.6295 87.2413 73.6017 87.1964 73.5587 87.1964Z" fill="white"/>
  <path d="M64.6584 87.2611C64.6914 88.1206 65.3671 89.1932 65.743 89.6777C65.7636 89.7042 65.8025 89.7063 65.826 89.6823C66.2786 89.2193 67.3458 87.9937 67.9253 87.3198C67.9601 87.2793 67.9239 87.2168 67.8712 87.2255C66.7966 87.4032 65.3791 87.2935 64.7213 87.2053C64.6874 87.2007 64.657 87.2269 64.6584 87.2611Z" fill="white"/>
  <path d="M89.1196 104.348C88.4758 104.134 87.7808 105.096 87.4741 105.674C87.4545 105.711 87.4809 105.753 87.5222 105.747C88.1764 105.649 89.9229 104.616 89.1196 104.348Z" fill="white"/>
  <path d="M100.086 92.2576C99.4508 92.4692 99.098 94.0246 98.9803 94.9105C98.9733 94.9632 99.0364 94.9931 99.0731 94.9547C100.396 93.5737 100.906 91.984 100.086 92.2576Z" fill="white"/>
  <path d="M100.929 64.1397C100.269 64.8004 101.89 67.6709 102.837 69.1103C102.863 69.1486 102.919 69.1412 102.934 69.0977C103.682 66.8417 101.76 63.309 100.929 64.1397Z" fill="white"/>
  <path d="M100.047 59.8778C98.4564 58.0778 94.4173 54.5293 92.5381 52.9302C92.5134 52.9092 92.4774 52.9145 92.4579 52.9404L90.8535 55.0796C90.8305 55.1103 90.8427 55.154 90.8788 55.1672C92.8984 55.9033 96.3034 59.6999 97.803 61.5677C97.822 61.5914 97.8555 61.5946 97.8798 61.5764L100.037 59.9584C100.063 59.9388 100.068 59.9023 100.047 59.8778Z" fill="white"/>
  <path d="M78.1351 55.9688L75.4205 53.5257C75.387 53.4955 75.401 53.4402 75.4448 53.4297C81.6797 51.9318 88.5843 55.7644 91.3211 57.9159C91.3475 57.9367 91.3482 57.9746 91.3245 57.9984L89.4356 59.8873C89.4157 59.9072 89.3838 59.909 89.3613 59.892C84.6716 56.3359 79.9716 55.8033 78.1776 55.9831C78.1617 55.9847 78.1469 55.9795 78.1351 55.9688Z" fill="white"/>
  <path d="M91.9314 73.6998C90.1868 69.5562 86.7153 66.3112 85.0533 65.0922C85.0084 65.0593 84.9494 65.1053 84.9696 65.1572L86.8624 70.0243C86.8674 70.0373 86.8758 70.047 86.8877 70.0542C87.3605 70.3438 88.9416 73.2562 89.682 74.694C89.8695 75.1192 90.4693 75.9091 91.3691 75.6681C92.2688 75.427 92.1189 74.2554 91.9314 73.6998Z" fill="white"/>
  <path d="M82.9249 61.5973L80.5016 58.3663C80.4695 58.3235 80.5138 58.2654 80.5654 58.2798C103.972 64.8179 99.6146 91.7422 93.6417 101.779C93.6278 101.802 93.6 101.811 93.5746 101.801L91.4276 100.996C91.3963 100.984 91.3828 100.947 91.3977 100.917C103.039 77.5728 90.6272 64.9949 82.9469 61.6149C82.938 61.611 82.9307 61.6051 82.9249 61.5973Z" fill="white"/>
  <path d="M77.8725 109.972C91.7735 105.488 94.1653 87.7809 93.6239 79.4052C93.6213 79.3652 93.5789 79.3432 93.5429 79.3612L91.4002 80.4326C91.3811 80.4421 91.3691 80.4622 91.3691 80.4835C91.3559 99.5362 80.7273 107.128 75.3767 108.557C75.3549 108.563 75.3396 108.581 75.3368 108.604C75.1464 110.141 76.9428 110.158 77.8725 109.972Z" fill="white"/>
  <path d="M87.4326 86.0647V75.3887C87.4326 75.3271 87.5163 75.3112 87.539 75.3684C90.0838 81.7873 88.9342 89.0189 88.0123 91.9222C88.0026 91.9528 87.9698 91.967 87.9398 91.9557L85.8273 91.1636C85.789 91.1492 85.7767 91.1 85.8009 91.0671C86.2623 90.4397 87.0701 87.5206 87.4309 86.0782C87.4321 86.0737 87.4326 86.0693 87.4326 86.0647Z" fill="white"/>
  <path d="M100.097 88.5418C102.531 75.8015 96.4737 66.273 93.0966 63.0534C93.0737 63.0316 93.0747 62.9965 93.0971 62.9741L94.9827 61.0885C95.0054 61.0658 95.0428 61.067 95.0643 61.0909C103.771 70.7297 103.833 83.6583 102.627 88.8368C102.621 88.8645 102.595 88.8811 102.567 88.878L100.146 88.609C100.114 88.6054 100.091 88.574 100.097 88.5418Z" fill="white"/>
  <circle cx="86.8669" cy="91.4138" r="1.12472" fill="white"/>
</svg>
