<svg width="560" height="160" viewBox="0 0 560 160" fill="none" xmlns="http://www.w3.org/2000/svg">
  <rect width="560" height="160" fill="white" fill-opacity="0"/>
  <g transform="translate(20 20)">
    <rect x="16.154" y="16.154" width="86.923" height="86.923" rx="20.769" fill="#121826"/>
    <path d="M36.7112 37.9169C45.0564 34.2073 64.6357 29.6379 83.7211 37.9318C84.0626 49.8854 84.6628 59.7275 81.9815 68.0821C79.3534 76.2714 73.4879 83.1773 60.2434 88.8037C53.9471 86.7748 51.0285 83.8651 47.609 81.5309C42.1685 75.9838 39.33 72.8731 37.8192 67.3813C36.2723 61.7586 36.1055 53.5768 36.7112 37.9169Z" stroke="white" stroke-width="3.46066" stroke-linecap="round"/>
    <path d="M45.6244 56.9084H44.5434C44.3046 56.9084 44.111 57.1021 44.111 57.3409V58.2057C44.111 58.4444 43.9174 58.6381 43.6786 58.6381C43.4399 58.6381 43.2462 58.8317 43.2462 59.0705V59.7196C43.2462 59.9584 43.4399 60.1521 43.6786 60.1521C43.9174 60.1521 44.111 60.3457 44.111 60.5845V64.2038C44.111 64.2423 44.1162 64.2816 44.1271 64.3184C44.6114 65.961 46.2333 65.9449 47.2367 65.6692C47.4349 65.6148 47.5475 65.4143 47.5138 65.2117L47.4637 64.9109L47.4582 64.8776C47.4086 64.5797 47.0472 64.4425 46.7565 64.3604C46.4291 64.2679 46.1994 63.9392 46.0873 63.686C46.0662 63.6383 46.0574 63.5864 46.0574 63.5343V60.5845C46.0574 60.3457 46.2511 60.1521 46.4899 60.1521H46.9223C47.1611 60.1521 47.3547 59.9584 47.3547 59.7196V59.0705C47.3547 58.8317 47.1611 58.6381 46.9223 58.6381H46.4899C46.2511 58.6381 46.0574 58.4444 46.0574 58.2057V57.3409C46.0574 57.1021 45.8638 56.9084 45.6244 56.9084Z" fill="white"/>
    <path d="M53.9027 62.7476H50.083C49.7989 62.7476 49.5886 63.0208 49.7117 63.2769C50.3594 64.625 51.6938 64.1861 52.4288 63.6936C52.5058 63.6421 52.5952 63.6118 52.6879 63.6118H53.8003C54.0543 63.6118 54.2535 63.8317 54.1732 64.0729C53.8985 64.8974 53.0408 65.99 51.0319 65.99C48.611 65.99 47.8616 63.8272 47.7895 62.7476C47.5731 61.379 47.9191 58.6381 51.0319 58.6381C53.8844 58.6381 54.4117 60.9408 54.3129 62.3794C54.2983 62.5917 54.1155 62.7476 53.9027 62.7476Z" fill="white"/>
    <path d="M59.805 56.4761H58.0361C57.8555 56.4761 57.6939 56.5883 57.6309 56.7575L54.4969 65.1844C54.3919 65.4668 54.6006 65.7673 54.9016 65.7673H56.1475C56.3242 65.7673 56.4832 65.6597 56.5489 65.4956L57.1956 63.8783C57.2613 63.7143 57.4202 63.6118 57.5969 63.6118H60.252C60.4287 63.6118 60.5877 63.7143 60.6534 63.8783L61.3001 65.4956C61.3658 65.6597 61.5248 65.7673 61.7014 65.7673H62.7454C63.0434 65.7673 63.2523 65.4735 63.1541 65.1928L60.2141 56.7659C60.1536 56.5924 59.9898 56.4761 59.805 56.4761Z" fill="white"/>
    <path d="M52.5468 61.4519H49.5205C49.5205 60.9476 49.8232 59.9388 51.0343 59.9388C52.2454 59.9388 52.5468 60.9476 52.5468 61.4519Z" fill="#121826"/>
    <path d="M57.3364 62.099L58.4174 58.6383L59.4985 62.099H57.3364Z" fill="#121826"/>
    <rect x="63.7908" y="59.0705" width="2.16303" height="6.91982" rx="0.432606" fill="white"/>
    <circle cx="64.8722" cy="57.5572" r="1.08152" fill="white"/>
    <path d="M46.0581 45.6612C48.6535 41.7681 56.4408 34.8484 67.2559 39.8206" stroke="white" stroke-width="2.16303" stroke-linecap="round"/>
    <path d="M47.7883 55.1779H44.9766C46.4905 48.0426 53.0528 42.3491 55.3603 41.1236C61.2 44.3665 64.8768 51.7203 65.7416 55.1779H62.9298C60.1613 48.4327 56.7302 45.3044 55.3603 44.5832C51.2076 47.5232 48.5827 52.8693 47.7883 55.1779Z" fill="white"/>
    <path d="M62.4994 67.2829H65.3111C62.9326 75.069 57.6714 78.3757 55.3639 79.3939C48.8752 75.7168 46.7119 71.8236 45.198 67.2829H48.0098C50.7782 72.8847 53.9921 75.4831 55.3639 76.0819C59.5167 73.6397 61.7071 69.1976 62.4994 67.2829Z" fill="white"/>
    <circle cx="44.5444" cy="48.9062" r="1.08152" fill="white"/>
    <circle cx="42.8147" cy="68.3723" r="1.08152" fill="white"/>
    <circle cx="53.8457" cy="81.1326" r="0.865213" fill="white"/>
    <circle cx="65.3072" cy="73.1296" r="1.08152" fill="white"/>
    <circle cx="70.9322" cy="78.3224" r="1.08152" fill="white"/>
    <circle cx="70.9322" cy="61.0184" r="1.08152" fill="white"/>
    <circle cx="77.8552" cy="68.3723" r="1.08152" fill="white"/>
    <circle cx="72.2303" cy="47.1765" r="1.08152" fill="white"/>
    <circle cx="76.1257" cy="46.3117" r="1.08152" fill="white"/>
    <circle cx="70.5007" cy="41.1195" r="1.08152" fill="white"/>
    <circle cx="69.6354" cy="45.014" r="1.08152" fill="white"/>
    <path d="M57.067 48.2046L55.4167 46.5543C55.4017 46.5394 55.378 46.5376 55.3608 46.5498C50.0804 50.3116 48.2945 55.6374 48.0467 57.9129C48.043 57.9467 48.0784 57.9689 48.1092 57.9543C48.7837 57.6347 49.7389 57.4193 50.1719 57.3445C50.1896 57.3415 50.2034 57.3276 50.207 57.31C51.4092 51.3538 55.2233 48.826 57.0501 48.2782C57.0819 48.2686 57.0907 48.2292 57.067 48.2046Z" fill="white"/>
    <path d="M53.6068 58.3439C53.2343 57.8741 52.3931 57.4978 51.9687 57.3512C51.9481 57.3441 51.936 57.3224 51.9404 57.3011C52.9828 52.1661 56.5132 50.1505 58.1788 49.7756C58.1954 49.7719 58.2115 49.7785 58.2217 49.7921L59.4467 51.4259C59.4687 51.4554 59.4457 51.4974 59.4088 51.4965C56.3842 51.4226 54.3557 55.9504 53.6869 58.3305C53.6768 58.3662 53.6291 58.3729 53.6068 58.3439Z" fill="white"/>
    <path d="M60.953 55.1771H56.982C56.9488 55.1771 56.928 55.1412 56.9453 55.1128C57.6507 53.958 59.3211 53.2486 60.1159 53.0243C60.1371 53.0184 60.1584 53.0296 60.1667 53.05L60.994 55.1176C61.0054 55.1461 60.9845 55.1771 60.953 55.1771Z" fill="white"/>
    <path d="M42.821 57.7328C43.1699 53.9775 44.5267 50.9006 45.1801 49.7978C45.1902 49.7808 45.1869 49.7601 45.1729 49.7461L43.718 48.2911C43.6992 48.2723 43.6689 48.2735 43.6536 48.2952C42.2799 50.234 40.9407 55.8306 40.4383 58.41C40.4375 58.4141 40.4374 58.4183 40.4379 58.4225C40.6093 60.1259 41.0751 60.1458 41.2946 59.9375C41.2997 59.9326 41.3035 59.9262 41.3056 59.9193C41.8022 58.2717 42.4687 57.8066 42.7771 57.7699C42.7993 57.7672 42.8178 57.7502 42.821 57.7328Z" fill="white"/>
    <path d="M42.7915 61.442C42.2209 61.2842 42.0136 60.7183 41.9644 60.3339C41.9586 60.2886 41.8907 60.274 41.8703 60.3148C41.3971 61.2616 40.4375 63.1919 40.4375 63.3957C40.4375 63.6118 40.4375 65.5588 41.0866 65.3425C41.6022 65.1705 42.1604 64.4152 42.3796 64.0517C42.3825 64.047 42.3861 64.043 42.3905 64.0396C43.0663 63.5231 42.963 62.1326 42.822 61.4744C42.8187 61.4584 42.8062 61.4463 42.7915 61.442Z" fill="white"/>
    <path d="M44.5046 66.6051L43.3018 65.8032C43.2769 65.7866 43.2431 65.7996 43.2346 65.8283C43.0413 66.4894 42.3501 67.3106 41.9881 67.6803C41.9697 67.6991 41.9715 67.7297 41.9927 67.7454C42.583 68.1847 43.7315 68.9665 43.9007 68.7974C44.1169 68.5811 43.9007 68.1486 43.9007 67.7162C43.9007 67.3891 44.2881 66.907 44.5132 66.6729C44.5322 66.6532 44.5289 66.6212 44.5046 66.6051Z" fill="white"/>
    <path d="M45.8374 72.2362L45.0005 70.1441C44.9902 70.1186 44.9595 70.1088 44.9366 70.1241C44.0756 70.6993 42.9361 71.5111 43.9 72.4749C44.532 73.107 45.6421 72.5082 45.8332 72.2767C45.8423 72.2657 45.8436 72.2508 45.8374 72.2362Z" fill="white"/>
    <path d="M45.6324 74.6486C45.9749 75.9789 47.6838 76.0737 48.5745 75.9474C48.6094 75.9425 48.6231 75.9001 48.5984 75.8751C47.9371 75.206 47.2369 74.3735 46.9452 74.0105C46.9343 73.9969 46.9161 73.9917 46.8994 73.9965C45.7615 74.3244 45.5725 74.5474 45.6224 74.628C45.6265 74.6347 45.6309 74.6416 45.6324 74.6486Z" fill="white"/>
    <path d="M52.0629 79.1117L49.9933 77.6633C49.9889 77.6603 49.9851 77.6564 49.982 77.6518C49.6383 77.1463 48.9898 77.2956 48.6982 77.4379C48.6922 77.4408 48.6853 77.4423 48.6786 77.4423C47.4807 77.4454 47.8976 78.0198 48.2571 78.3073C49.2556 79.3057 51.1337 79.3174 52.0456 79.188C52.0838 79.1826 52.0946 79.1334 52.0629 79.1117Z" fill="white"/>
    <path d="M56.0375 80.476C55.2051 81.3018 54.3074 80.8643 53.9218 80.509C53.9009 80.4898 53.8672 80.4945 53.8531 80.5195L53.0347 81.9508C53.024 81.9698 53.029 81.9941 53.0462 82.0072C54.9982 83.478 58.4366 81.5426 61.0176 79.8219C63.0673 78.4551 65.1454 75.0101 65.9608 73.3964C65.9753 73.3677 65.9537 73.3354 65.9215 73.3354H63.8567C63.8397 73.3354 63.8243 73.3453 63.8172 73.3607C62.0832 77.1466 57.9278 79.6718 56.051 80.4664C56.0458 80.4686 56.0412 80.472 56.0375 80.476Z" fill="white"/>
    <path d="M54.9392 74.1857L53.2877 73.1534C53.2614 73.1369 53.2618 73.0979 53.2872 73.0802C57.1648 70.3708 56.7151 69.4392 59.2057 64.8348C59.2271 64.7953 59.2962 64.8074 59.3026 64.8517C59.3922 65.4668 59.8818 66.7293 60.1454 67.2624C60.1507 67.273 60.1511 67.285 60.1471 67.2961C58.7698 71.0687 56.1461 73.4492 54.9827 74.1858C54.9687 74.1946 54.951 74.1941 54.9392 74.1857Z" fill="white"/>
    <path d="M56.1853 67.0629H54.1205C54.1055 67.0629 54.0917 67.0705 54.0838 67.0831C53.2285 68.4401 51.6204 69.9032 50.8863 70.4959C50.8673 70.5112 50.8654 70.5387 50.8813 70.5572L52.1243 72.0074C52.1388 72.0243 52.1635 72.0276 52.1817 72.0147C53.8706 70.8161 55.5524 68.3024 56.2229 67.1263C56.2392 67.0976 56.2178 67.0629 56.1853 67.0629Z" fill="white"/>
    <path d="M49.3397 67.1127C49.3652 67.7739 49.885 68.5988 50.1743 68.9714C50.1902 68.9917 50.2202 68.9933 50.2383 68.9749C50.5864 68.6187 51.4073 67.6757 51.8531 67.1573C51.8799 67.1262 51.852 67.0781 51.8115 67.0847C50.9845 67.2214 49.8943 67.137 49.3881 67.0691C49.362 67.0655 49.3386 67.0857 49.3397 67.1127Z" fill="white"/>
    <path d="M68.554 80.2534C68.0587 80.0889 67.524 80.8284 67.288 81.2729C67.2729 81.3011 67.2932 81.3334 67.325 81.3287C67.8282 81.2533 69.1721 80.4587 68.554 80.2534Z" fill="white"/>
    <path d="M76.9892 71.9683C76.5006 72.1311 76.2292 73.3277 76.1388 74.0092C76.1334 74.0498 76.1819 74.0728 76.2101 74.0432C77.2275 72.9812 77.6197 71.7579 76.9892 71.9683Z" fill="white"/>
    <path d="M77.6369 50.2613C77.1297 50.7689 78.3767 52.9755 79.1051 54.0817C79.1252 54.1111 79.1683 54.1054 79.1797 54.0719C79.7549 52.3366 78.2772 49.6229 77.6369 50.2613Z" fill="white"/>
    <path d="M76.9609 46.9838C75.738 45.5992 72.631 42.8689 71.1858 41.6383C71.1668 41.6222 71.1391 41.6263 71.1241 41.6462L69.8901 43.2915C69.8724 43.3151 69.8817 43.3487 69.9094 43.3589C71.4627 43.9249 74.0818 46.8447 75.2353 48.2809C75.2499 48.2991 75.2757 48.3016 75.2944 48.2876L76.9532 47.043C76.9732 47.028 76.9773 47.0001 76.9609 46.9838Z" fill="white"/>
    <path d="M59.3155 43.9751L57.2273 42.0965C57.2016 42.0733 57.2123 42.0308 57.2461 42.0227C62.0422 40.8708 67.3511 43.819 69.457 45.4733C69.4774 45.4893 69.478 45.5185 69.4598 45.5368L68.0069 46.9896C67.9916 47.0049 67.967 47.0062 67.9497 46.9932C64.3418 44.2585 60.7263 43.8489 59.3467 43.9872C59.3344 43.9884 59.323 43.9844 59.3155 43.9751Z" fill="white"/>
    <path d="M69.9263 56.6924C68.5843 53.505 65.9144 51.009 64.6361 50.0713C64.6015 50.046 64.5561 50.0814 64.5716 50.1213L66.0281 53.8667C66.032 53.8767 66.0384 53.8841 66.0476 53.8896C66.4113 54.1124 67.6275 56.3527 68.1973 57.4577C68.3416 57.7846 68.803 58.392 69.4953 58.2066C70.1875 58.0211 70.0723 57.1199 69.9263 56.6924Z" fill="white"/>
    <path d="M62.9962 47.4319L61.1318 44.9465C61.1071 44.9136 61.1412 44.8689 61.1809 44.88C79.1867 49.9109 75.8344 70.6238 71.2401 78.3444C71.2293 78.3621 71.208 78.3691 71.1885 78.3615L69.5369 77.7416C69.5128 77.7326 69.5024 77.7039 69.5139 77.6806C78.467 59.7314 68.9214 50.0561 63.0131 47.4454C63.0062 47.4424 63.0005 47.4378 62.9962 47.4319Z" fill="white"/>
    <path d="M59.1517 83.0678C69.8447 79.6181 71.6848 65.995 71.2684 59.5521C71.2664 59.5213 71.2338 59.5044 71.2061 59.5183L69.5576 60.3426C69.5429 60.3499 69.5337 60.3653 69.5337 60.3816C69.5235 75.0375 61.3453 80.8771 57.2295 81.9765C57.2128 81.981 57.201 81.9949 57.1988 82.0125C57.0523 83.1948 58.4345 83.2082 59.1517 83.0678Z" fill="white"/>
    <path d="M64.4925 64.7968V56.5815C64.4925 56.5341 64.5569 56.5218 64.5743 56.5658C66.532 61.505 65.648 67.067 64.9389 69.3003C64.9315 69.3239 64.9063 69.3348 64.8832 69.3261L63.2586 68.7166C63.2291 68.7056 63.2197 68.6677 63.2382 68.6424C63.5932 68.1596 64.2144 65.9143 64.4912 64.8071C64.4921 64.8036 64.4925 64.8002 64.4925 64.7968Z" fill="white"/>
    <path d="M76.9988 68.1083C78.8702 58.308 74.2134 50.9781 71.6172 48.5015C71.5995 48.4847 71.6003 48.4577 71.6175 48.4405L73.068 46.9899C73.0855 46.9724 73.1142 46.9733 73.1307 46.9917C79.8243 54.4038 79.872 64.3436 78.9452 68.3248C78.9406 68.3461 78.9206 68.3589 78.8995 68.3565L77.0387 68.1496C77.0138 68.1468 76.9965 68.1226 76.9988 68.1083Z" fill="white"/>
    <circle cx="64.0564" cy="68.9096" r="0.865213" fill="white"/>
  </g>
  <g transform="translate(176 36)">
    <text x="0" y="42" fill="#0F172A" font-family="Inter, Segoe UI, Arial, sans-serif" font-size="44" font-weight="800" letter-spacing="-0.04em">
      Almond teAI
    </text>
    <text x="0" y="76" fill="#475569" font-family="Inter, Segoe UI, Arial, sans-serif" font-size="18" font-weight="500">
      Security Review Before You Ship.
    </text>
  </g>
</svg>
