<svg width="113" height="113" viewBox="21 21 113 113" fill="none" xmlns="http://www.w3.org/2000/svg">
  <rect x="21" y="21" width="113" height="113" rx="27" fill="#121826"/>
  <path d="M47.7246 49.292C58.5716 44.4695 84.0247 38.5273 108.837 49.3115C109.281 64.8507 110.061 77.6458 106.576 88.5088C103.16 99.1569 95.5343 108.135 78.3164 115.45C70.1312 112.811 66.3371 109.027 61.8916 105.992C54.8191 98.7799 51.1284 94.7376 49.165 87.5977C47.1549 80.2875 46.9381 69.6499 47.7246 49.292Z" stroke="white" stroke-width="4.49886" stroke-linecap="round"/>
  <path d="M59.3117 73.9808H57.9058C57.5952 73.9808 57.3435 74.2326 57.3435 74.5432V75.6679C57.3435 75.9785 57.0917 76.2302 56.7811 76.2302C56.4705 76.2302 56.2188 76.482 56.2188 76.7926V77.6361C56.2188 77.9467 56.4705 78.1985 56.7811 78.1985C57.0917 78.1985 57.3435 78.4503 57.3435 78.7609V83.4656C57.3435 83.5156 57.3502 83.5667 57.3644 83.6146C57.9941 85.7497 60.1025 85.7287 61.4069 85.3702C61.6645 85.2994 61.8108 85.0388 61.7669 84.7754L61.7017 84.3844L61.6945 84.3411C61.63 83.9538 61.1603 83.7754 60.7825 83.6686C60.3571 83.5485 60.0586 83.1211 59.9129 82.792C59.8855 82.7301 59.8741 82.6627 59.8741 82.595V78.7609C59.8741 78.4503 60.1258 78.1985 60.4364 78.1985H60.9988C61.3094 78.1985 61.5611 77.9467 61.5611 77.6361V76.7926C61.5611 76.482 61.3094 76.2302 60.9988 76.2302H60.4364C60.1258 76.2302 59.8741 75.9785 59.8741 75.6679V74.5432C59.8741 74.2326 59.6223 73.9808 59.3117 73.9808Z" fill="white"/>
  <path d="M70.0783 81.5726H65.1058C64.736 81.5726 64.4623 81.9281 64.6224 82.2614C65.4652 84.0157 67.2016 83.4448 68.1581 82.804C68.2583 82.7369 68.3746 82.6974 68.4952 82.6974H69.9431C70.2737 82.6974 70.5329 82.9835 70.4284 83.2972C70.071 84.3697 68.9551 85.7903 66.3412 85.7903C63.192 85.7903 62.2172 82.9785 62.1235 81.5726C61.8423 79.7918 62.2922 76.2302 66.3412 76.2302C70.0545 76.2302 70.7407 79.2258 70.6121 81.0961C70.5931 81.3721 70.3551 81.5726 70.0783 81.5726Z" fill="white"/>
  <path d="M77.7513 73.4185H75.4485C75.2136 73.4185 75.0034 73.5645 74.9214 73.7847L70.8411 84.7507C70.7044 85.1181 70.9761 85.5091 71.3681 85.5091H72.9899C73.2199 85.5091 73.4267 85.3691 73.5121 85.1556L74.354 83.0509C74.4394 82.8374 74.6462 82.6974 74.8761 82.6974H78.3323C78.5623 82.6974 78.769 82.8374 78.8545 83.0509L79.6964 85.1556C79.7818 85.3691 79.9885 85.5091 80.2185 85.5091H81.5766C81.9637 85.5091 82.2351 85.1271 82.1076 84.7616L78.2822 73.7956C78.2035 73.5698 77.9905 73.4185 77.7513 73.4185Z" fill="white"/>
  <path d="M68.3115 79.8858H64.375C64.375 79.2297 64.7687 77.9175 66.3433 77.9175C67.9179 77.9175 68.3115 79.2297 68.3115 79.8858Z" fill="#121826"/>
  <path d="M75.0598 80.7293L76.4657 76.2305L77.8716 80.7293H75.0598Z" fill="#121826"/>
  <rect x="82.9336" y="76.7925" width="2.81179" height="8.99772" rx="0.562358" fill="white"/>
  <circle cx="84.3395" cy="74.8243" r="1.40589" fill="white"/>
  <path d="M59.875 59.3594C63.2491 54.2984 73.3716 45.3007 87.4305 51.7675" stroke="white" stroke-width="2.81179" stroke-linecap="round"/>
  <path d="M62.1241 71.7312H58.4688C60.437 62.4523 68.9661 55.0479 71.9653 53.4546C79.5572 57.6723 84.3372 67.2323 85.4619 71.7312H81.8066C78.2075 62.9584 73.7461 58.8907 71.9653 57.9534C66.5667 61.7775 63.1551 68.732 62.1241 71.7312Z" fill="white"/>
  <path d="M81.247 87.4771L84.9023 87.4771C81.8094 97.5996 74.9674 101.899 71.9681 103.223C63.5328 98.4431 60.721 93.3819 58.7527 87.4771L62.408 87.4771C66.0071 94.7653 70.1873 98.1446 71.9681 98.9233C77.3668 95.7464 80.216 89.9688 81.247 87.4771Z" fill="white"/>
  <circle cx="57.9059" cy="63.5773" r="1.40589" fill="white"/>
  <circle cx="55.6559" cy="88.8834" r="1.40589" fill="white"/>
  <circle cx="69.9958" cy="105.473" r="1.12472" fill="white"/>
  <circle cx="84.8981" cy="95.069" r="1.40589" fill="white"/>
  <circle cx="92.2106" cy="101.818" r="1.40589" fill="white"/>
  <circle cx="92.2106" cy="79.3234" r="1.40589" fill="white"/>
  <circle cx="101.211" cy="88.8834" r="1.40589" fill="white"/>
  <circle cx="93.8981" cy="61.8903" r="1.40589" fill="white"/>
  <circle cx="98.9606" cy="60.7658" r="1.40589" fill="white"/>
  <circle cx="91.6481" cy="54.0172" r="1.40589" fill="white"/>
  <circle cx="90.5231" cy="59.0783" r="1.40589" fill="white"/>
</svg>
